<svg width="6877" height="2583" viewBox="0 0 6877 2583" fill="none" xmlns="http://www.w3.org/2000/svg">
<g filter="url(#filter0_f_1806_4)">
<g clip-path="url(#clip0_1806_4)">
<path d="M3251.02 2041.95H3079.22C3011.79 2041.95 2957.12 1987.28 2957.12 1919.85V1878.51C2957.12 1860.33 2960.51 1842.31 2967.1 1825.36L3161.39 1326.13C3172.69 1297.11 3172.47 1264.87 3160.78 1236.01L2967.84 759.592C2960.76 742.119 2957.12 723.445 2957.12 704.593V671.732C2957.12 604.298 3011.79 549.632 3079.22 549.632H3251.81C3280.04 549.632 3305.76 565.857 3317.92 591.339L3622.43 1229.39C3638.02 1262.06 3638.31 1299.97 3623.22 1332.88L3317.61 1999.23C3305.67 2025.26 3279.66 2041.95 3251.02 2041.95Z" fill="white"/>
<path d="M3251.02 2041.95H3079.22C3011.79 2041.95 2957.12 1987.28 2957.12 1919.85V1878.51C2957.12 1860.33 2960.51 1842.31 2967.1 1825.36L3161.39 1326.13C3172.69 1297.11 3172.47 1264.87 3160.78 1236.01L2967.84 759.592C2960.76 742.119 2957.12 723.445 2957.12 704.593V671.732C2957.12 604.298 3011.79 549.632 3079.22 549.632H3251.81C3280.04 549.632 3305.76 565.857 3317.92 591.339L3622.43 1229.39C3638.02 1262.06 3638.31 1299.97 3623.22 1332.88L3317.61 1999.23C3305.67 2025.26 3279.66 2041.95 3251.02 2041.95Z" fill="url(#paint0_linear_1806_4)"/>
<path d="M3023.66 1254.34L2927.1 1016.33C2923.07 1006.39 2908.28 1009.28 2908.28 1020.01V1560.91C2908.28 1571.77 2923.34 1574.53 2927.19 1564.37L3024.29 1307.81C3030.83 1290.54 3030.6 1271.44 3023.66 1254.34Z" fill="white"/>
<path d="M3023.66 1254.34L2927.1 1016.33C2923.07 1006.39 2908.28 1009.28 2908.28 1020.01V1560.91C2908.28 1571.77 2923.34 1574.53 2927.19 1564.37L3024.29 1307.81C3030.83 1290.54 3030.6 1271.44 3023.66 1254.34Z" fill="url(#paint1_linear_1806_4)"/>
<path d="M3644.38 2039.25H4192.78C4260.21 2039.25 4314.88 1984.59 4314.88 1917.15V1881.81C4314.88 1862.86 4311.2 1844.09 4304.05 1826.53L4103.12 1333.35C4090.93 1303.41 4091.1 1269.87 4103.6 1240.06L4303.47 763.468C4311 745.524 4314.88 726.26 4314.88 706.801V666.848C4314.88 599.414 4260.21 544.748 4192.78 544.748H3645.1C3591.12 544.748 3555.68 601.133 3579.08 649.771L3860.2 1234.05C3876.19 1267.29 3876.3 1305.97 3860.49 1339.3L3578.18 1934.6C3555.13 1983.21 3590.58 2039.25 3644.38 2039.25Z" fill="white"/>
<path d="M3644.38 2039.25H4192.78C4260.21 2039.25 4314.88 1984.59 4314.88 1917.15V1881.81C4314.88 1862.86 4311.2 1844.09 4304.05 1826.53L4103.12 1333.35C4090.93 1303.41 4091.1 1269.87 4103.6 1240.06L4303.47 763.468C4311 745.524 4314.88 726.26 4314.88 706.801V666.848C4314.88 599.414 4260.21 544.748 4192.78 544.748H3645.1C3591.12 544.748 3555.68 601.133 3579.08 649.771L3860.2 1234.05C3876.19 1267.29 3876.3 1305.97 3860.49 1339.3L3578.18 1934.6C3555.13 1983.21 3590.58 2039.25 3644.38 2039.25Z" fill="url(#paint2_linear_1806_4)"/>
<path d="M4332.68 1536.03L4242.62 1313.25C4235.7 1296.12 4235.5 1277.01 4242.07 1259.74L4332.61 1021.77C4336.47 1011.63 4351.51 1014.39 4351.51 1025.24V1532.37C4351.51 1543.11 4336.71 1545.99 4332.68 1536.03Z" fill="white"/>
<path d="M4332.68 1536.03L4242.62 1313.25C4235.7 1296.12 4235.5 1277.01 4242.07 1259.74L4332.61 1021.77C4336.47 1011.63 4351.51 1014.39 4351.51 1025.24V1532.37C4351.51 1543.11 4336.71 1545.99 4332.68 1536.03Z" fill="url(#paint3_linear_1806_4)"/>
</g>
</g>
<g clip-path="url(#clip1_1806_4)">
<path d="M3251.02 2041.95H3079.22C3011.79 2041.95 2957.12 1987.28 2957.12 1919.85V1878.51C2957.12 1860.33 2960.51 1842.31 2967.1 1825.36L3161.39 1326.13C3172.69 1297.11 3172.47 1264.87 3160.78 1236.01L2967.84 759.592C2960.76 742.119 2957.12 723.445 2957.12 704.593V671.732C2957.12 604.298 3011.79 549.632 3079.22 549.632H3251.81C3280.04 549.632 3305.76 565.857 3317.92 591.339L3622.43 1229.39C3638.02 1262.06 3638.31 1299.97 3623.22 1332.88L3317.61 1999.23C3305.67 2025.26 3279.66 2041.95 3251.02 2041.95Z" fill="white"/>
<path d="M3251.02 2041.95H3079.22C3011.79 2041.95 2957.12 1987.28 2957.12 1919.85V1878.51C2957.12 1860.33 2960.51 1842.31 2967.1 1825.36L3161.39 1326.13C3172.69 1297.11 3172.47 1264.87 3160.78 1236.01L2967.84 759.592C2960.76 742.119 2957.12 723.445 2957.12 704.593V671.732C2957.12 604.298 3011.79 549.632 3079.22 549.632H3251.81C3280.04 549.632 3305.76 565.857 3317.92 591.339L3622.43 1229.39C3638.02 1262.06 3638.31 1299.97 3623.22 1332.88L3317.61 1999.23C3305.67 2025.26 3279.66 2041.95 3251.02 2041.95Z" fill="url(#paint4_linear_1806_4)"/>
<path d="M3023.66 1254.34L2927.1 1016.33C2923.07 1006.39 2908.28 1009.28 2908.28 1020.01V1560.91C2908.28 1571.77 2923.34 1574.53 2927.19 1564.37L3024.29 1307.81C3030.83 1290.54 3030.6 1271.44 3023.66 1254.34Z" fill="white"/>
<path d="M3023.66 1254.34L2927.1 1016.33C2923.07 1006.39 2908.28 1009.28 2908.28 1020.01V1560.91C2908.28 1571.77 2923.34 1574.53 2927.19 1564.37L3024.29 1307.81C3030.83 1290.54 3030.6 1271.44 3023.66 1254.34Z" fill="url(#paint5_linear_1806_4)"/>
<path d="M3644.38 2039.25H4192.78C4260.21 2039.25 4314.88 1984.59 4314.88 1917.15V1881.81C4314.88 1862.86 4311.2 1844.09 4304.05 1826.53L4103.12 1333.35C4090.93 1303.41 4091.1 1269.87 4103.6 1240.06L4303.47 763.468C4311 745.524 4314.88 726.26 4314.88 706.801V666.848C4314.88 599.414 4260.21 544.748 4192.78 544.748H3645.1C3591.12 544.748 3555.68 601.133 3579.08 649.771L3860.2 1234.05C3876.19 1267.29 3876.3 1305.97 3860.49 1339.3L3578.18 1934.6C3555.13 1983.21 3590.58 2039.25 3644.38 2039.25Z" fill="white"/>
<path d="M3644.38 2039.25H4192.78C4260.21 2039.25 4314.88 1984.59 4314.88 1917.15V1881.81C4314.88 1862.86 4311.2 1844.09 4304.05 1826.53L4103.12 1333.35C4090.93 1303.41 4091.1 1269.87 4103.6 1240.06L4303.47 763.468C4311 745.524 4314.88 726.26 4314.88 706.801V666.848C4314.88 599.414 4260.21 544.748 4192.78 544.748H3645.1C3591.12 544.748 3555.68 601.133 3579.08 649.771L3860.2 1234.05C3876.19 1267.29 3876.3 1305.97 3860.49 1339.3L3578.18 1934.6C3555.13 1983.21 3590.58 2039.25 3644.38 2039.25Z" fill="url(#paint6_linear_1806_4)"/>
<path d="M4332.68 1536.03L4242.62 1313.25C4235.7 1296.12 4235.5 1277.01 4242.07 1259.74L4332.61 1021.77C4336.47 1011.63 4351.51 1014.39 4351.51 1025.24V1532.37C4351.51 1543.11 4336.71 1545.99 4332.68 1536.03Z" fill="white"/>
<path d="M4332.68 1536.03L4242.62 1313.25C4235.7 1296.12 4235.5 1277.01 4242.07 1259.74L4332.61 1021.77C4336.47 1011.63 4351.51 1014.39 4351.51 1025.24V1532.37C4351.51 1543.11 4336.71 1545.99 4332.68 1536.03Z" fill="url(#paint7_linear_1806_4)"/>
</g>
<defs>
<filter id="filter0_f_1806_4" x="2169.8" y="-174.2" width="2932.4" height="2932.4" filterUnits="userSpaceOnUse" color-interpolation-filters="sRGB">
<feFlood flood-opacity="0" result="BackgroundImageFix"/>
<feBlend mode="normal" in="SourceGraphic" in2="BackgroundImageFix" result="shape"/>
<feGaussianBlur stdDeviation="122.6" result="effect1_foregroundBlur_1806_4"/>
</filter>
<linearGradient id="paint0_linear_1806_4" x1="3140.78" y1="537.462" x2="3848.58" y2="1744.48" gradientUnits="userSpaceOnUse">
<stop stop-color="#FF3364"/>
<stop offset="1" stop-color="#9100D6"/>
</linearGradient>
<linearGradient id="paint1_linear_1806_4" x1="3140.78" y1="537.462" x2="3848.58" y2="1744.48" gradientUnits="userSpaceOnUse">
<stop stop-color="#FF3364"/>
<stop offset="1" stop-color="#9100D6"/>
</linearGradient>
<linearGradient id="paint2_linear_1806_4" x1="4092.51" y1="532.56" x2="3422.38" y2="1803.73" gradientUnits="userSpaceOnUse">
<stop stop-color="#FF3364"/>
<stop offset="1" stop-color="#9100D6"/>
</linearGradient>
<linearGradient id="paint3_linear_1806_4" x1="4092.51" y1="532.56" x2="3422.38" y2="1803.73" gradientUnits="userSpaceOnUse">
<stop stop-color="#FF3364"/>
<stop offset="1" stop-color="#9100D6"/>
</linearGradient>
<linearGradient id="paint4_linear_1806_4" x1="3140.78" y1="537.462" x2="3848.58" y2="1744.48" gradientUnits="userSpaceOnUse">
<stop stop-color="#FF3364"/>
<stop offset="1" stop-color="#9100D6"/>
</linearGradient>
<linearGradient id="paint5_linear_1806_4" x1="3140.78" y1="537.462" x2="3848.58" y2="1744.48" gradientUnits="userSpaceOnUse">
<stop stop-color="#FF3364"/>
<stop offset="1" stop-color="#9100D6"/>
</linearGradient>
<linearGradient id="paint6_linear_1806_4" x1="4092.51" y1="532.56" x2="3422.38" y2="1803.73" gradientUnits="userSpaceOnUse">
<stop stop-color="#FF3364"/>
<stop offset="1" stop-color="#9100D6"/>
</linearGradient>
<linearGradient id="paint7_linear_1806_4" x1="4092.51" y1="532.56" x2="3422.38" y2="1803.73" gradientUnits="userSpaceOnUse">
<stop stop-color="#FF3364"/>
<stop offset="1" stop-color="#9100D6"/>
</linearGradient>
<clipPath id="clip0_1806_4">
<rect x="2908.28" y="544.748" width="1440.78" height="1494.5" rx="48.84" fill="white"/>
</clipPath>
<clipPath id="clip1_1806_4">
<rect x="2908.28" y="544.748" width="1440.78" height="1494.5" rx="48.84" fill="white"/>
</clipPath>
</defs>
</svg>
